<?xml version="1.0" encoding="utf-8"?>
<!-- Generator: Adobe Illustrator 19.2.0, SVG Export Plug-In . SVG Version: 6.00 Build 0)  -->
<svg version="1.1" id="Слой_1" xmlns="http://www.w3.org/2000/svg" xmlns:xlink="http://www.w3.org/1999/xlink" x="0px" y="0px"
	 viewBox="0 0 32 32" style="enable-background:new 0 0 32 32;" xml:space="preserve">
<style type="text/css">
	.st0{fill:#82C8BD;}
	.st1{fill:#FFFFFF;}
</style>
<path class="st0" d="M16,0c8.8,0,16,7.2,16,16c0,8.8-7.2,16-16,16S0,24.8,0,16C0,7.2,7.2,0,16,0z"/>
<path class="st1" d="M18.5,17.2c-1.6-1.2-2.2-1.7-1.2-2.6c1-0.9,1.9-1.7,1.9-3.4l-1.4-2.6c0,0,1,0.2,1.6-0.2L20.1,8h-5.2
	c-1,0-3.9,1.2-3.9,3.9c0,2.8,3,3.4,4.1,3.3C14.5,16,15,16.7,15.3,17c0.3,0.4,0.3,0.5-0.1,0.5c-0.4,0-5.2,0.1-5.2,3.5
	s6.4,3.7,8.5,1.8C20.6,21,20.2,18.4,18.5,17.2z M15.4,14.5c-2.6,0-3.8-6.1-0.7-6.1C17.1,8.4,18.9,14.5,15.4,14.5z M15.1,23
	c-2.2,0-3.3-1.1-3.3-2.7c0-1.6,1.6-2.4,4.5-2.4c0.8,0.6,2.2,1.4,2.2,2.9C18.5,22.3,17.3,23,15.1,23z M23,10V8h-1v2h-2v1h2v2h1v-2h2
	v-1C25,10,23,10,23,10z"/>
</svg>
